<?xml version="1.0" encoding="UTF-8"?>
<svg id="Layer_1" data-name="Layer 1" xmlns="http://www.w3.org/2000/svg" viewBox="0 0 250 250">
  <defs>
    <style>
      .cls-1, .cls-2 {
        fill: #4b4b4d;
      }

      .cls-1, .cls-3, .cls-4 {
        stroke-width: 0px;
      }

      .cls-2, .cls-5 {
        stroke: #231f20;
        stroke-miterlimit: 10;
        stroke-width: 1px;
      }

      .cls-3 {
        fill: #ffb83c;
      }

      .cls-4 {
        fill: #fffffb;
      }

      .cls-5 {
        fill: none;
      }
    </style>
  </defs>
  <rect class="cls-3" x="12.5" y="12.5" width="225" height="225" rx="90" ry="90"/>
  <g>
    <g>
      <path class="cls-1" d="m173.27,64.48c14.22,14.21,19.79,33.79,16.76,52.22h.01s10.44,18.08,10.44,18.08c10.8-27.01,5.26-59.03-16.61-80.91-29.29-29.29-76.78-29.28-106.07,0-29.29,29.29-29.28,76.78,0,106.07l10.61-10.61c-23.43-23.43-23.44-61.42,0-84.85,23.43-23.43,61.42-23.44,84.85,0Z"/>
      <rect class="cls-1" x="57.94" y="136.71" width="15" height="50" transform="translate(133.51 1.09) rotate(45)"/>
    </g>
    <path class="cls-4" d="m135.75,58.12c-28.99,0-52.5,23.51-52.5,52.5h15c0-20.71,16.79-37.5,37.5-37.5v-15Z"/>
    <g>
      <path class="cls-2" d="m133.21,84.37h19.77c13.17,0,23.86,10.69,23.86,23.86v38.64h-67.5v-38.64c0-13.17,10.69-23.86,23.86-23.86Z"/>
      <path class="cls-2" d="m108.03,134.37h70c2.76,0,5,2.24,5,5v7.5h-80v-7.5c0-2.76,2.24-5,5-5Z"/>
      <path class="cls-2" d="m108.03,134.37h65c2.76,0,5,2.24,5,5v7.5h-75v-7.5c0-2.76,2.24-5,5-5Z"/>
      <path class="cls-5" d="m131.44,84.37h18.31c12.2,0,22.1,9.9,22.1,22.1v27.9h-62.5v-27.9c0-12.2,9.9-22.1,22.1-22.1Z"/>
      <polygon class="cls-3" points="140.53 90.48 145.94 102.83 158.03 104.81 149.28 114.42 151.35 127.98 140.53 121.58 129.72 127.98 131.78 114.42 123.03 104.81 135.13 102.83 140.53 90.48"/>
    </g>
    <g>
      <rect class="cls-4" x="116.96" y="170.11" width="15" height="50" transform="translate(-101.51 145.15) rotate(-45)"/>
      <rect class="cls-4" x="159.38" y="127.43" width="15" height="100" transform="translate(159.42 420.9) rotate(-135)"/>
    </g>
  </g>
</svg>