<?xml version="1.0" encoding="UTF-8"?>
<svg id="Layer_4" data-name="Layer 4" xmlns="http://www.w3.org/2000/svg" viewBox="0 0 210 70">
  <defs>
    <style>
      .cls-1 {
        stroke-width: 0px;
      }
    </style>
  </defs>
  <path class="cls-1" d="m30.14,39.29c.2,0,.37.07.51.22.15.15.22.28.22.4,0,.46-.52,1.18-1.57,2.17s-2.41,1.85-4.1,2.56-3.47,1.06-5.35,1.06c-3.04,0-5.67-.66-7.91-1.99-2.24-1.33-3.96-3.17-5.15-5.54s-1.79-4.82-1.79-7.37.58-4.94,1.75-7.17,2.83-3.97,4.98-5.22,4.65-1.87,7.49-1.87c1.82,0,3.49.24,5.03.71s2.75,1.05,3.64,1.73,1.33,1.19,1.33,1.54c0,.55-.01,1.04-.04,1.48s-.04.71-.04.8c0,.16.05.39.14.71s.14.61.14.89c0,.43-.27.64-.8.64-.17,0-.34-.08-.51-.23-.17-.16-.42-.59-.74-1.31-.69-1.52-1.43-2.63-2.22-3.33-1.39-1.21-3.33-1.82-5.83-1.82-3.21,0-5.71,1.17-7.49,3.51-1.79,2.34-2.68,5.36-2.68,9.06,0,4.02.97,7.21,2.9,9.54s4.54,3.51,7.83,3.51c.84,0,2.17-.28,3.98-.85,1.81-.57,3.6-1.67,5.36-3.3.39-.35.69-.53.91-.53Z"/>
  <path class="cls-1" d="m46.06,41.89c0,.93.62,1.58,1.87,1.95.31.09.54.2.69.32.15.12.22.34.22.67,0,.17-.1.32-.3.45-.2.12-.42.19-.65.19-.25,0-.58-.06-1-.18s-.76-.18-1.02-.18c-.3,0-.67.06-1.13.18s-.76.18-.91.18c-.18,0-.36-.07-.54-.2s-.26-.26-.26-.39c0-.21-.06-.31-.19-.31-.09,0-.21.05-.35.14-1.47.91-3.05,1.37-4.75,1.37-.8,0-1.7-.21-2.7-.62s-1.79-1.06-2.38-1.92-.9-1.93-.9-3.21c0-1.35.65-2.55,1.93-3.59s2.95-1.56,4.98-1.56c.69,0,1.44.19,2.26.58.82.38,1.23.78,1.23,1.18,0,.2-.08.35-.25.47s-.38.18-.62.18c-.17,0-.5-.12-.99-.35s-1-.35-1.52-.35c-1.06,0-1.95.32-2.65.94-.7.63-1.05,1.47-1.05,2.52,0,1.22.4,2.16,1.21,2.81s1.73.98,2.78.98c.95,0,1.82-.31,2.62-.94s1.2-1.46,1.2-2.5v-5.29c0-.79-.26-1.44-.79-1.93-.53-.49-1.23-.74-2.11-.74-1.13,0-2.22.36-3.28,1.07-.36.25-.61.37-.74.37-.31,0-.57-.08-.79-.24s-.33-.37-.33-.63c0-.64.58-1.18,1.74-1.62s2.43-.66,3.81-.66c1.7,0,3.07.43,4.11,1.29s1.56,1.88,1.56,3.06v6.54Z"/>
  <path class="cls-1" d="m56.02,40.89c0,1.09.05,1.79.15,2.1.1.31.29.46.56.46.43,0,.94-.23,1.56-.7.62-.47,1.03-.7,1.24-.7.17,0,.32.08.46.24.13.16.2.35.2.57,0,.37-.51.97-1.53,1.8s-1.92,1.25-2.7,1.25c-2.05,0-3.08-1.51-3.08-4.52v-7.5c0-.25-.03-.38-.1-.4s-.43-.03-1.09-.03c-.52,0-.87-.07-1.05-.23-.18-.15-.27-.37-.27-.66,0-.25.07-.43.2-.53s.4-.21.8-.32.7-.24.91-.39.51-.46.9-.94.66-1.14.82-2,.24-2.09.24-3.71c0-.77.21-1.15.63-1.15.47,0,.77.11.89.32.12.21.18.58.18,1.08v6.52c0,.26.17.39.51.39h2.76c.56,0,.84.24.84.73,0,.57-.4.85-1.21.85h-2.43c-.18,0-.29.03-.33.09s-.06.2-.06.44v6.94Z"/>
  <path class="cls-1" d="m76.11,42.6c.36,0,.55.3.55.91,0,.39-.66.89-1.97,1.5-1.31.61-2.69.92-4.13.92-2.36,0-4.39-.72-6.07-2.16s-2.53-3.25-2.53-5.43c0-1.94.8-3.64,2.39-5.11,1.6-1.47,3.5-2.2,5.72-2.2,1.19,0,2.55.25,4.07.74,1.52.49,2.28.94,2.28,1.34,0,.72.04,1.32.12,1.77s.12.71.12.78c0,.58-.27.87-.81.87-.41,0-.73-.39-.95-1.17s-.7-1.4-1.43-1.86-1.62-.69-2.69-.69c-1.34,0-2.58.5-3.73,1.49s-1.72,2.39-1.72,4.21c0,1.67.64,3.04,1.93,4.1,1.29,1.06,2.62,1.59,4.02,1.59.51,0,1.03-.07,1.58-.2s1.16-.4,1.82-.8,1.15-.6,1.43-.6Z"/>
  <path class="cls-1" d="m84.07,42.51c0,.36.1.67.29.93s.62.43,1.28.52,1.05.22,1.2.37.21.36.21.59c0,.42-.37.63-1.11.63-.39,0-.97-.04-1.74-.13-.77-.08-1.35-.13-1.74-.13-.36,0-.9.04-1.6.13-.7.08-1.24.13-1.6.13-.91,0-1.37-.24-1.37-.71,0-.22.06-.4.19-.54s.54-.25,1.22-.33,1.13-.31,1.34-.7c.21-.39.32-.85.32-1.37v-21.03c0-.33-.11-.62-.33-.88-.22-.26-.66-.5-1.3-.72s-1.03-.39-1.16-.51-.18-.24-.18-.38c0-.46.38-.69,1.15-.69.22,0,.56.03,1.02.08.46.05.79.08,1.02.08.23,0,.56-.06.99-.18.43-.12.74-.18.95-.18.29,0,.52.08.69.25s.26.6.26,1.31v23.45Zm9.75-.29c0,.47.1.87.3,1.22s.62.56,1.27.64,1.03.2,1.15.34.18.32.18.53c0,.3-.09.49-.28.55-.19.07-.56.1-1.12.1-.34,0-.85-.03-1.54-.1s-1.2-.1-1.52-.1c-.36,0-.91.04-1.62.12-.72.08-1.26.12-1.62.12-.83,0-1.25-.28-1.25-.85,0-.2.06-.36.19-.48s.52-.22,1.18-.3,1.09-.27,1.3-.6c.21-.33.32-.71.32-1.15,0-.68-.01-1.68-.04-3.01s-.04-2.33-.04-3.01c0-.61-.18-1.08-.53-1.42-.35-.33-.85-.5-1.5-.5s-1.38.31-2.2.94c-.52.39-.91.59-1.16.59-.13,0-.27-.07-.41-.22-.14-.14-.21-.29-.21-.43,0-.67.67-1.41,2.03-2.21,1.35-.8,2.44-1.2,3.25-1.2s1.55.23,2.27.7c.73.47,1.21,1.05,1.46,1.74.13.31.19,1.38.19,3.22,0,.78,0,1.72-.03,2.82s-.03,1.75-.03,1.94Z"/>
  <path class="cls-1" d="m65.98,51.6c0-.35-.11-.62-.32-.82s-.42-.29-.62-.29c-.6,0-.9-.18-.9-.55,0-.42.21-.64.65-.64.12,0,.35.03.7.1.35.07.61.1.79.1.24,0,.49-.03.74-.09s.43-.09.52-.09c.27,0,.45.07.54.2.09.13.16.66.19,1.6.04.94.06,2.02.06,3.26l-.03,2.55c0,.45.03.73.08.84s.18.22.36.33.4.18.65.2.43.08.55.14c.12.07.17.2.17.41,0,.34-.25.52-.77.52-.37,0-.75-.04-1.13-.11-.38-.07-.76-.11-1.13-.11-.3,0-.67.04-1.11.11-.43.07-.76.11-.98.11-.56,0-.84-.16-.84-.47,0-.24.05-.39.16-.47.11-.07.3-.13.58-.16s.51-.11.68-.23.29-.28.33-.47.07-.59.07-1.2v-4.77Zm6.82-.03c0-.21-.1-.4-.29-.55-.19-.15-.41-.23-.63-.23-.5,0-1.09.27-1.76.82-.4.34-.69.51-.87.51-.26,0-.39-.11-.39-.34,0-.5.47-1.08,1.4-1.73.93-.66,1.78-.99,2.53-.99.64,0,1.2.22,1.68.67s.72.97.72,1.57l-.03,5.91c0,.3.11.55.31.75.21.2.46.3.75.3.51,0,.77.2.77.59,0,.35-.27.52-.8.52-.06,0-.36-.03-.89-.1s-.98-.09-1.35-.09c-.6,0-1.11.04-1.52.11-.41.07-.68.11-.8.11-.18,0-.34-.06-.47-.17-.14-.11-.2-.26-.2-.44,0-.28.18-.42.53-.42.32,0,.62-.1.9-.3s.42-.5.42-.9v-5.62Zm6.85,0c0-.21-.1-.4-.29-.55s-.41-.23-.63-.23c-.4,0-.89.22-1.47.67-.58.44-.97.66-1.16.66-.12,0-.23-.04-.32-.11-.09-.07-.14-.16-.14-.26,0-.44.44-.99,1.32-1.66.88-.67,1.77-1,2.68-1,1.06,0,1.78.43,2.17,1.3.14.26.21,1.71.21,4.33l-.03,2.49c0,.31.09.55.26.7s.43.27.78.34.56.15.64.24.11.2.11.33c0,.37-.25.55-.74.55-.07,0-.37-.03-.9-.1-.53-.06-.98-.09-1.35-.09s-.78.04-1.21.11c-.43.07-.8.11-1.09.11-.18,0-.34-.06-.47-.17-.13-.11-.2-.26-.2-.44,0-.31.23-.48.7-.53.46-.04.77-.16.92-.36.15-.2.22-.44.22-.73v-5.62Z"/>
  <path class="cls-1" d="m93.32,57.42c.26,0,.39.12.39.37,0,.3-.4.68-1.2,1.13s-1.59.67-2.38.67c-.54,0-1.12-.18-1.73-.53-.62-.35-1.01-.8-1.16-1.33-.15-.53-.23-1.49-.23-2.87l.03-2.94c0-.79-.36-1.26-1.08-1.4-.42-.08-.69-.16-.8-.23-.12-.07-.18-.22-.18-.44,0-.16.05-.29.14-.41s.21-.17.36-.17.43.05.86.14c.43.09.71.14.83.14.14,0,.43-.05.87-.14s.72-.14.83-.14c.07,0,.16.03.26.1s.16.14.17.22c.02.08.04.75.06,2.03.02,1.27.04,2.45.04,3.52,0,.82.03,1.41.09,1.78.06.36.25.66.56.89s.73.34,1.24.34c.39,0,.79-.12,1.2-.37.42-.24.69-.37.83-.37Zm2.8-8.15c.35,0,.53.24.53.72,0,.95.01,2.33.05,4.14.03,1.81.04,3.03.04,3.66,0,2.18-.26,3.75-.78,4.69-.52.94-1.08,1.6-1.67,1.97-.6.37-1.32.56-2.19.56-.73,0-1.31-.1-1.73-.31-.43-.2-.64-.39-.64-.56,0-.08.04-.16.12-.26.08-.09.18-.14.29-.14.08,0,.24.05.49.15.24.1.52.15.83.15.56,0,1.11-.18,1.64-.55.54-.36.88-.87,1.03-1.51.15-.64.23-1.6.23-2.88,0-4.57-.01-7.12-.04-7.63-.03-.52-.4-.83-1.12-.94-.72-.11-1.08-.34-1.08-.7s.26-.55.77-.55c.17,0,.48.03.92.09.45.06.81.09,1.11.09.22,0,.45-.03.69-.09s.41-.09.51-.09Z"/>
  <path class="cls-1" d="m124.93,22.94h.07c.81,0,1.43-.7,1.86-2.09.43-1.39.64-3.32.64-5.78,0-.29-.16-.54-.49-.73-.33-.19-.68-.29-1.04-.29-.34,0-.63.1-.88.29s-.47.81-.7,1.84c-.22,1.03-.58,1.8-1.08,2.3-.81.86-2.17,1.3-4.08,1.3-2.51,0-3.88-.84-4.25-2.44.08-2.25.29-6.27.63-6.99.44-.91,1.27-1.6,2.49-2.06,1.22-.47,1.94-.83,2.14-1.09s.3-.56.3-.88c0-.89-.69-1.34-2.06-1.34s-2.86.24-4.47.71c-1.6.47-2.4,1.09-2.4,1.86v-.07c0-.81-.69-1.43-2.08-1.86-1.39-.43-3.31-.64-5.77-.64-.29,0-.54.17-.73.5-.19.33-.29.68-.29,1.05,0,.34.1.64.29.88s.81.47,1.84.7c1.03.22,1.8.58,2.3,1.08.73.68,1.13,5.54,1.25,8.2-.16.42-.34.83-.61,1.11-.69.71-1.79,1.07-3.32,1.07-1.08,0-2.08-.22-2.99-.66-.91-.44-1.6-1.27-2.06-2.49-.47-1.23-.82-1.94-1.09-2.14s-.55-.3-.88-.3c-.89,0-1.34.69-1.34,2.07s.24,2.87.71,4.48c.47,1.6,1.09,2.41,1.86,2.41h-.07c-.81,0-1.43.7-1.86,2.09-.43,1.39-.64,3.32-.64,5.78,0,.29.16.54.49.73.33.19.68.29,1.04.29.34,0,.63-.1.88-.29s.47-.81.7-1.84c.22-1.03.58-1.8,1.08-2.3.81-.86,2.17-1.3,4.08-1.3,2.94,0,4.42,1.1,4.42,3.29v1.66h-.01l-.05,24.57c0,.79-.17,1.5-.52,2.14-.35.63-1.03,1.1-2.05,1.41-1.01.31-1.61.57-1.79.79-.18.22-.27.46-.27.74,0,.57.24,1.02.74,1.34.49.32,1.09.48,1.79.48.58,0,1.44-.09,2.56-.25,1.12-.17,1.98-.25,2.56-.25.63,0,1.6.1,2.9.31,1.31.2,2.29.31,2.97.31,1.24,0,1.85-.6,1.85-1.79,0-.3-.11-.56-.34-.79-.22-.23-.86-.5-1.89-.8-1.04-.3-1.72-.66-2.05-1.08-.32-.42-.49-.9-.49-1.44l.05-22.85h.02v-3.02c0-1.6.34-2.76,1.03-3.47.69-.71,1.79-1.07,3.32-1.07,1.08,0,2.08.22,2.99.66.91.44,1.6,1.27,2.06,2.49.47,1.23.82,1.94,1.09,2.14s.55.3.88.3c.89,0,1.34-.69,1.34-2.07s-.24-2.87-.71-4.48c-.47-1.6-1.09-2.41-1.86-2.41Z"/>
  <path class="cls-1" d="m131.57,43.08c2.87,0,5.38.99,7.51,2.96s3.21,4.26,3.21,6.84c0,2.9-1.02,5.25-3.06,7.07s-4.78,2.73-8.2,2.73c-2.7,0-5.13-.93-7.28-2.78-2.15-1.85-3.23-4.16-3.23-6.92s.95-4.94,2.84-6.93c1.89-1.98,4.63-2.98,8.22-2.98Zm.03,17.32c1.99,0,3.58-.72,4.76-2.16,1.18-1.44,1.78-3.26,1.78-5.46s-.64-3.94-1.91-5.33c-1.27-1.39-2.88-2.08-4.84-2.08s-3.57.68-4.67,2.04c-1.11,1.36-1.66,3.12-1.66,5.27,0,2.38.61,4.26,1.84,5.64,1.23,1.39,2.79,2.08,4.7,2.08Z"/>
  <path class="cls-1" d="m147.74,48.28c0-.62-.18-1.11-.56-1.45-.37-.35-.73-.52-1.08-.52-1.04,0-1.56-.33-1.56-.98,0-.75.37-1.13,1.12-1.13.21,0,.61.06,1.21.18.6.12,1.05.18,1.37.18.42,0,.85-.05,1.29-.16.44-.1.74-.16.9-.16.47,0,.78.12.94.35.16.23.27,1.18.34,2.85.07,1.66.1,3.6.1,5.8l-.05,4.53c0,.8.05,1.3.14,1.5.09.2.3.39.62.59.32.19.7.31,1.13.36s.75.13.95.25c.2.11.3.36.3.72,0,.61-.44.92-1.33.92-.64,0-1.29-.07-1.95-.2-.66-.13-1.31-.2-1.95-.2-.52,0-1.16.07-1.91.2-.75.13-1.32.2-1.7.2-.97,0-1.46-.28-1.46-.84,0-.42.09-.7.27-.83s.52-.23,1-.29c.48-.06.88-.2,1.18-.41s.49-.5.57-.84.12-1.06.12-2.13v-8.49Zm11.81-.05c0-.38-.17-.71-.51-.97-.33-.27-.7-.4-1.1-.4-.86,0-1.88.49-3.05,1.47-.69.6-1.19.9-1.5.9-.45,0-.67-.2-.67-.6,0-.88.81-1.91,2.43-3.08s3.08-1.76,4.37-1.76c1.11,0,2.08.39,2.91,1.18.83.79,1.25,1.72,1.25,2.8l-.05,10.51c0,.54.18.99.55,1.34.36.36.79.53,1.3.53.88,0,1.32.35,1.32,1.05,0,.62-.46.92-1.38.92-.1,0-.62-.06-1.55-.17-.93-.11-1.71-.17-2.33-.17-1.04,0-1.92.07-2.63.2s-1.17.2-1.38.2c-.31,0-.59-.1-.82-.3-.23-.2-.35-.46-.35-.78,0-.49.3-.74.91-.74.55,0,1.07-.18,1.56-.53.48-.36.73-.89.73-1.6v-9.99Zm11.86,0c0-.38-.17-.71-.51-.97-.33-.27-.7-.4-1.1-.4-.69,0-1.54.39-2.55,1.18-1.01.79-1.68,1.18-2.01,1.18-.21,0-.39-.07-.55-.2-.17-.13-.25-.28-.25-.46,0-.78.76-1.76,2.28-2.95,1.52-1.19,3.07-1.78,4.65-1.78,1.83,0,3.09.77,3.76,2.31.24.47.36,3.03.36,7.7l-.05,4.42c0,.56.15.97.44,1.25.3.28.74.48,1.35.6.61.12.97.27,1.1.43.13.17.19.37.19.59,0,.65-.43.98-1.28.98-.12,0-.64-.06-1.56-.17-.92-.11-1.7-.17-2.34-.17s-1.34.07-2.1.2c-.75.13-1.38.2-1.89.2-.31,0-.59-.1-.82-.3-.23-.2-.35-.46-.35-.78,0-.54.4-.86,1.21-.93s1.34-.29,1.6-.64.39-.78.39-1.3v-9.99Z"/>
  <path class="cls-1" d="m188.54,61c-.1.1-.21.28-.31.53s-.23.44-.38.56c-.15.12-.41.18-.79.18-.3,0-.76-.07-1.39-.22-.63-.15-1.13-.22-1.49-.22s-.87.07-1.52.22c-.65.15-1.14.22-1.47.22-.4,0-.74-.1-1.04-.3-.3-.2-.44-.48-.44-.83,0-.23.08-.42.26-.58.17-.16.77-.34,1.79-.55,1.03-.21,1.72-.6,2.09-1.19s.55-1.29.55-2.1v-26.7c0-1.44-.34-2.44-1.01-3.01-.38-.33-.99-.55-1.82-.67s-1.34-.28-1.51-.48c-.18-.2-.26-.44-.26-.72s.17-.51.51-.7c.34-.18.66-.28.97-.28.35,0,.86.07,1.53.22.67.15,1.18.22,1.51.22s.75-.06,1.32-.17c.57-.11,1-.17,1.27-.17.52,0,.9.14,1.14.43s.36.82.36,1.6v30.43c0,1.08.66,2.04,1.98,2.88,1.32.84,2.57,1.26,3.74,1.26,1.35,0,2.77-.57,4.28-1.72,1.5-1.14,2.25-3.04,2.25-5.7,0-2.06-.6-3.83-1.79-5.29-1.19-1.46-2.74-2.2-4.63-2.2-.73,0-1.47.2-2.24.6-.77.4-1.27.6-1.52.6-.21,0-.42-.09-.63-.27-.22-.18-.32-.36-.32-.53,0-.78.67-1.46,2-2.05,1.33-.59,2.5-.88,3.52-.88,2.83,0,5.19,1.02,7.09,3.06,1.89,2.04,2.84,4.52,2.84,7.45,0,2.69-.99,4.9-2.97,6.65-1.98,1.74-4.36,2.61-7.16,2.61-1.42,0-3.22-.57-5.39-1.71l-.93-.45Z"/>
</svg>